<?xml version="1.0" encoding="utf-8"?>
<!-- Generator: Adobe Illustrator 20.1.0, SVG Export Plug-In . SVG Version: 6.00 Build 0)  -->
<svg version="1.1" id="Layer_1" xmlns="http://www.w3.org/2000/svg" xmlns:xlink="http://www.w3.org/1999/xlink" x="0px" y="0px"
	 viewBox="0 0 4734.3 4564.4" style="enable-background:new 0 0 4734.3 4564.4;" xml:space="preserve">
<style type="text/css">
	.st0{fill:url(#SVGID_1_);}
	.st1{opacity:0.8;fill:#DA727E;}
	.st2{opacity:0.8;fill:url(#SVGID_2_);}
	.st3{opacity:0.8;fill:url(#SVGID_3_);}
	.st4{fill:#DA727E;}
	.st5{fill:#FFAA5C;}
	.st6{fill:#455C7B;}
	.st7{fill:#1C5379;}
	.st8{fill:url(#SVGID_4_);}
	.st9{opacity:0.8;fill:#FFAA5C;}
	.st10{opacity:0.8;fill:#455C7B;}
	.st11{opacity:0.8;fill:#685C79;}
	.st12{opacity:0.8;fill:#AC6C82;}
	.st13{fill:#685C79;}
	.st14{fill:#AC6C82;}
</style>
<linearGradient id="SVGID_1_" gradientUnits="userSpaceOnUse" x1="1877.7074" y1="8647.2217" x2="2938.73" y2="7586.1992">
	<stop  offset="0" style="stop-color:#0078A4"/>
	<stop  offset="1" style="stop-color:#A6D3EB"/>
</linearGradient>
<path class="st0" d="M1408.2,8055.1c0,0,389.7-52.7,507.7-52.7s206.1,52.7,274.8,52.7c68.7,0,119.1-18.4,203.6-18.4
	c84.6,0,121.9,18.4,199.5,18.4c77.6,0,230-54.3,318.1-54.3s382.4,54.3,495.8,54.3c1.3,122.6,1.3,122.6,1.3,122.6H1408.2"/>
<path class="st1" d="M1190.1,7422.3h1185.2h1189.2c0,0-0.1-158.2-0.2-186.4c-368.7,0-719.8,122.9-1185,122.9
	c-380.3,0-820.5-122.9-1189.3-122.9"/>
<linearGradient id="SVGID_2_" gradientUnits="userSpaceOnUse" x1="-1289.5978" y1="7329.1069" x2="1087.7023" y2="7329.1069">
	<stop  offset="0" style="stop-color:#0078A4"/>
	<stop  offset="1" style="stop-color:#A6D3EB"/>
</linearGradient>
<path class="st2" d="M-1289.6,7330.2c597.5,0,1078.9-96.2,1188.7-96.2c98.9,0,583.8,96.2,1188.7,96.2c0,94,0,94,0,94h-2377.3V7330.2
	z"/>
<linearGradient id="SVGID_3_" gradientUnits="userSpaceOnUse" x1="1190.1667" y1="7600.9814" x2="3564.4333" y2="7600.9814">
	<stop  offset="0" style="stop-color:#A6D3EB"/>
	<stop  offset="1" style="stop-color:#0078A4"/>
</linearGradient>
<path class="st3" d="M1190.2,7643.9c643.4,99,1050-158.4,1159.6-158.4c98.7,0,260.7,263.5,1214.7,158.4c0,72.6,0,72.6,0,72.6H1190.2
	V7643.9z"/>
<path class="st4" d="M3807.5,6467.4v-288.7c0,0,250.6-204,367.9-204c117.3,0,298.9,103.9,385.9,103.9s484.3-154,650.7-154
	s430.4,150.1,544.3,150.1c114,0,450.7-103.9,575.5-103.9c124.8,0,514.5,204,624.3,204c109.8,0,223.2-88.5,393.5-88.5
	c170.3,0,518.3,211.7,578.9,215.6c0,109.8,0,165.5,0,165.5H3807.5L3807.5,6467.4z"/>
<path class="st5" d="M3807.5,5858.3v-268c0,0,173-172,273-172s157.4,76.9,252,144c124,88,428,120,508,120s388-48,548-124
	c155.4-73.8,351.5-188,479.5-188s196.5,68,284.9,104c138,56.2,239.6,94,343.6,94s188-110,340-110s224,110,320,110s316-242,448-242
	s188,184,324,184v348H3807.5"/>
<path class="st6" d="M7928.1,6811.6c0,0-43.2-53.6-178.4-53.6c-135.2,0-176.6,156.5-294.7,156.5c-176.8,0-279.1-112.7-476.7-112.7
	s-305.9,151.3-480.2,151.3c-174.3,0-316.3-169.4-537.4-169.4c-221.1,0-255.7,51.5-398.7,51.5s-308.4-146-586.8-146
	c-267.6,0-466.3,214.4-614.5,214.4c-148.2,0-159.6-124.3-318.2-124.3c-158.6,0-235,110.9-235,110.9v157v130.7h4121L7928.1,6811.6z"
	/>
<path class="st7" d="M2899.2,8911c-57.4,0-213.3,64.4-272.2,64.4c-62.6,0-170.4-64.4-227.8-64.4s-213.3,64.4-272.2,64.4
	c-62.6,0-170.4-64.4-227.8-64.4c-57.4,0-213.3,64.4-272.2,64.4c-62.6,0-170.4-64.4-227.8-64.4c-57.4,0-213.3,64.4-272.2,64.4
	c0,23.9,0,95.6,0,95.6h500h500h500h500c0,0,0-6.2,0-95.6C3064.5,8975.5,2956.6,8911,2899.2,8911z"/>
<linearGradient id="SVGID_4_" gradientUnits="userSpaceOnUse" x1="1895.0188" y1="8465.4189" x2="2992.7021" y2="7367.7358">
	<stop  offset="0" style="stop-color:#0078A4"/>
	<stop  offset="1" style="stop-color:#A6D3EB"/>
</linearGradient>
<path class="st8" d="M1414.4,7920.3c130.1,0,1414.1,1.5,1988.4-142.5c-1.2,207-1.2,207-1.2,207H1414.4V7920.3z"/>
<ellipse class="st9" cx="2416.5" cy="2282.2" rx="176" ry="2086.3"/>
<ellipse transform="matrix(0.809 -0.5878 0.5878 0.809 -879.9289 1856.2506)" class="st10" cx="2416.5" cy="2282.2" rx="176" ry="2086.3"/>
<ellipse transform="matrix(0.309 -0.9511 0.9511 0.309 -500.7296 3875.1982)" class="st11" cx="2416.5" cy="2282.2" rx="176" ry="2086.3"/>
<ellipse transform="matrix(0.9511 -0.309 0.309 0.9511 -586.965 858.4418)" class="st12" cx="2416.5" cy="2282.2" rx="2086.3" ry="176"/>
<ellipse transform="matrix(0.5878 -0.809 0.809 0.5878 -850.2142 2895.7542)" class="st1" cx="2416.5" cy="2282.2" rx="2086.3" ry="176"/>
<ellipse class="st5" cx="5498" cy="2282.2" rx="21.1" ry="250"/>
<ellipse class="st6" cx="5738" cy="2282.2" rx="21.1" ry="250"/>
<ellipse class="st13" cx="5678" cy="2282.2" rx="21.1" ry="250"/>
<ellipse class="st14" cx="5618" cy="2282.2" rx="21.1" ry="250"/>
<ellipse class="st4" cx="5558" cy="2282.2" rx="21.1" ry="250"/>
</svg>
