<svg id="Layer_1" data-name="Layer 1" xmlns="http://www.w3.org/2000/svg" xmlns:xlink="http://www.w3.org/1999/xlink" viewBox="0 0 244.38 244.38"><defs><style>.cls-1{fill:url(#linear-gradient);}.cls-2{fill:url(#linear-gradient-2);}</style><linearGradient id="linear-gradient" x1="115.6" y1="122.25" x2="242.74" y2="122.25" gradientUnits="userSpaceOnUse"><stop offset="0" stop-color="#455c7b"/><stop offset="1" stop-color="#ac6c82"/></linearGradient><linearGradient id="linear-gradient-2" x1="3.64" y1="122.25" x2="145.78" y2="122.25" gradientUnits="userSpaceOnUse"><stop offset="0" stop-color="#ac6c82"/><stop offset="1" stop-color="#ffaa5c"/></linearGradient></defs><title>logo</title><path class="cls-1" d="M182.72,140.67l-24.52-14.9Q135.12,111.68,125.36,98a52.51,52.51,0,0,1-9.76-31.38q0-26.62,18.47-43.24t48-16.62a90.82,90.82,0,0,1,51.79,15.85V59.29Q209.5,35.85,181.43,35.85q-15.81,0-26,7.31T145.28,61.88q0,10.13,7.49,19t24.08,18.56L201.5,114q41.24,24.63,41.24,62.71,0,27.11-18.15,44t-47.19,16.94q-33.4,0-60.83-20.53v-41q26.14,33.12,60.5,33.12,15.16,0,25.25-8.44t10.08-21.14Q212.4,159.13,182.72,140.67Z"/><path class="cls-2" d="M3.64,235.11V9.39H75.11q32.27,0,51.47,17.43t19.2,46.79q0,19.69-9.84,34.85a56.28,56.28,0,0,1-26.94,22q-17.1,6.86-49,6.86H36.07v97.77Zm65.83-197H36.07v70.51H71.4q19.68,0,30.33-9.28T112.38,72.8Q112.38,38.11,69.47,38.11Z"/></svg>